# xmcd CD database file
#
# Track frame offsets:
#	150
#	10907
#	24002
#	38697
#	50142
#	60380
#	71970
#	86927
#	99075
#	105302
#	114842
#	122447
#	133227
#	149287
#	163330
#	172852
#
# Disc length: 2489 seconds
#
# Revision: 0
# Processed by: cddbd v1.5PL3 Copyright (c) Steve Scherf et al.
# Submitted via: CDex 1.51
#
DISCID=cc09b710
DTITLE=Tee - This is Tee
DYEAR=1999
DGENRE=Blues
TTITLE0=All the time
TTITLE1=Tell me where
TTITLE2=Just what it takes
TTITLE3=Oh well
TTITLE4=That's love
TTITLE5=Nothin' but a nothin'
TTITLE6=Life ain't funny
TTITLE7=Can't stand the way you love me
TTITLE8=Happy guy
TTITLE9=Feel so good
TTITLE10=Through the bottle in my hand
TTITLE11=Time
TTITLE12=Voodoo woman blues
TTITLE13=Just what it takes (rehearsal)
TTITLE14=One more number
TTITLE15=In my lonely room
EXTD=YEAR: 1999
EXTT0=
EXTT1=
EXTT2=
EXTT3=
EXTT4=
EXTT5=
EXTT6=
EXTT7=
EXTT8=
EXTT9=
EXTT10=
EXTT11=
EXTT12=
EXTT13=
EXTT14=
EXTT15=
PLAYORDER=
